<?xml version="1.0" encoding="utf-8"?>
<!-- Generator: Adobe Illustrator 25.2.1, SVG Export Plug-In . SVG Version: 6.00 Build 0)  -->
<svg version="1.1" id="Layer_1" xmlns="http://www.w3.org/2000/svg" xmlns:xlink="http://www.w3.org/1999/xlink" x="0px" y="0px"
	 viewBox="0 0 864 864" style="enable-background:new 0 0 864 864;" xml:space="preserve">
<style type="text/css">
	.st0{fill:#001689;}
	.st1{fill:#29317D;}
	.st2{font-family:'ITCAvantGardePro-Bk';}
	.st3{font-size:18.053px;}
</style>
<g>
	<polygon class="st0" points="430.1,397 518.9,499.5 536.5,499.5 447.7,397 	"/>
	<polygon class="st0" points="398.1,397 486.9,499.5 504.5,499.5 415.7,397 	"/>
	<polygon class="st0" points="366.1,397 454.9,499.5 472.5,499.5 383.8,397 	"/>
	<path class="st0" d="M550.8,499.5c-15.6,55.7-65.2,80.8-120.1,80.8c-85.5,0-137.8-68.6-137.8-150.7c0-79.4,55-145.9,137.1-145.9
		c47.5,0,87.6,23.8,110.6,65.2h143.9C654,241.6,542,171,433.4,171c-147.3,0-268.8,107.9-268.8,258.6
		c0,148.7,118.8,263.4,266.8,263.4c154.1,0,268.1-115.4,268.1-269.5c0-8.8,0-17.7-0.7-26.5H462L550.8,499.5"/>
</g>
<text transform="matrix(1 0 0 1 672.8116 688)" class="st1 st2 st3">TM</text>
</svg>
